# xmcd
#
# Track frame offsets:
#	150
#	12887
#	24122
#	37943
#	47925
#	58251
#	71668
#	80515
#	93545
#	107335
#	119242
#	129491
#	145997
#	156171
#
# Disc length: 2153 seconds
#
# Revision: 1
# Processed by: cddbd v1.5.2PL0 Copyright (c) Steve Scherf et al.
# Submitted via: audiograbber 1.83.01
#
DISCID=bd08670e
DTITLE=Ronny - Hohe Tannen
DYEAR=1968
DGENRE=Country
TTITLE0=Hohe Tannen
TTITLE1=Wenn alle Brünnlein fließen
TTITLE2=Im grünen Wald
TTITLE3=Drei Lilien
TTITLE4=muss wandern, muss wandern
TTITLE5=Ich weiss nicht, was soll es bedeuten (Loreley)
TTITLE6=Muss i denn, muss i denn zum Städtele
TTITLE7=Kein schöner Land in  dieser Zeit
TTITLE8=In einem kühlen Grunde
TTITLE9=Steh ich in finstrer Mitternacht
TTITLE10=Wen Gott will rechte Gunst erweisen
TTITLE11=Es war im Böhmerwald (Tief drin im Böhmerwald)
TTITLE12=An der Saale hellem Strande
TTITLE13=s ist Feierabend
EXTD=
EXTT0=
EXTT1=
EXTT2=
EXTT3=
EXTT4=
EXTT5=
EXTT6=
EXTT7=
EXTT8=
EXTT9=
EXTT10=
EXTT11=
EXTT12=
EXTT13=
PLAYORDER=
